<?xml version="1.0" encoding="UTF-8" standalone="no"?>
<!-- Generator: Adobe Illustrator 19.0.0, SVG Export Plug-In . SVG Version: 6.00 Build 0)  -->

<svg
   version="1.1"
   id="Layer_1"
   x="0px"
   y="0px"
   viewBox="0 0 512 512"
   style="enable-background:new 0 0 512 512;"
   xml:space="preserve"
   sodipodi:docname="apie-logo.svg"
   inkscape:version="1.1 (c68e22c387, 2021-05-23)"
   xmlns:inkscape="http://www.inkscape.org/namespaces/inkscape"
   xmlns:sodipodi="http://sodipodi.sourceforge.net/DTD/sodipodi-0.dtd"
   xmlns="http://www.w3.org/2000/svg"
   xmlns:svg="http://www.w3.org/2000/svg"><defs
   id="defs109"><rect
   x="1212.3218"
   y="48.38825"
   width="762.44189"
   height="338.71775"
   id="rect28737" /><rect
   x="727.13154"
   y="181.78289"
   width="210.55428"
   height="342.64112"
   id="rect27051" /><rect
   x="535.42884"
   y="139.63688"
   width="515.54677"
   height="345.85559"
   id="rect1671" />
	

		
	
			
			
			
			
			
		</defs><sodipodi:namedview
   id="namedview107"
   pagecolor="#ffffff"
   bordercolor="#666666"
   borderopacity="1.0"
   inkscape:pageshadow="2"
   inkscape:pageopacity="0.0"
   inkscape:pagecheckerboard="0"
   showgrid="false"
   inkscape:zoom="4.3255048"
   inkscape:cx="325.62674"
   inkscape:cy="405.84859"
   inkscape:window-width="1920"
   inkscape:window-height="1001"
   inkscape:window-x="-9"
   inkscape:window-y="-9"
   inkscape:window-maximized="1"
   inkscape:current-layer="Layer_1" />
<g
   id="g391"
   transform="matrix(0.5425135,0,0,0.56255626,86.790161,131.70451)"><path
     d="m 493.225,259.994 c -10.862,-15.775 -25.566,-28.211 -42.753,-36.266 0.001,-0.146 0.011,-0.289 0.011,-0.434 0,-10.11 -3.153,-19.938 -8.956,-28.132 3.049,-10.104 4.592,-20.569 4.592,-31.169 0,-14.454 -2.817,-28.5 -8.373,-41.745 -0.028,-0.068 -0.069,-0.13 -0.099,-0.198 l 0.019,-0.009 C 420.739,81.904 381.654,55.969 338.096,55.969 h -55.694 c -28.525,0 -56.079,11.444 -76.243,31.518 h -26.808 c -58.863,0 -106.751,47.886 -106.751,106.747 0,14.902 3.074,29.099 8.614,41.995 -4.377,-0.878 -8.852,-1.335 -13.365,-1.335 C 30.437,234.893 0,265.33 0,302.743 c 0,12.041 9.797,21.837 21.837,21.837 12.04,0 21.839,-9.797 21.839,-21.837 0,-13.331 10.844,-24.175 24.174,-24.175 13.33,0 24.174,10.844 24.174,24.175 v 41.077 c 0,22.025 8.523,42.828 23.998,58.573 14.505,14.76 33.555,23.492 54.004,24.846 13.453,17.489 34.571,28.791 58.29,28.791 h 95.23 c 1.938,0 3.807,-0.286 5.588,-0.782 3.506,0.509 7.075,0.782 10.64,0.782 h 95.23 c 11.529,0 20.909,-9.38 20.909,-20.91 0,-11.528 -9.379,-20.908 -20.909,-20.908 H 413.293 V 382.51 c 0,-27.396 -15.219,-52.369 -39.196,-65.031 v -17.808 c 0,-9.446 -1.292,-18.7 -3.838,-27.656 h 31.502 c 6.67,0 13.027,-1.35 18.822,-3.785 23.122,6.771 39.047,27.853 39.047,52.175 v 30.791 c 0,14.439 11.746,26.186 26.185,26.186 14.438,0 26.183,-11.747 26.183,-26.186 V 320.405 C 512,298.719 505.507,277.83 493.225,259.994 Z M 187.395,103.572 h 22.749 c 5.57,0 10.101,4.531 10.101,10.099 0,5.568 -4.532,10.099 -10.101,10.099 h -22.749 z m -6.01,98.687 c 3.972,10.491 9.479,20.208 16.469,28.97 -4.883,5.328 -9.157,11.15 -12.8,17.386 h -5.704 c -29.986,0 -54.382,-24.396 -54.382,-54.382 0,-25.584 17.765,-47.085 41.605,-52.848 -3.889,6.801 -6.053,14.585 -6.053,22.606 0.003,16.028 8.324,30.139 20.865,38.268 z M 108.109,343.82 v -41.077 c 0,-22.199 -18.06,-40.26 -40.259,-40.26 -22.199,0 -40.259,18.061 -40.259,40.26 0,3.172 -2.581,5.753 -5.754,5.753 -3.172,0 -5.753,-2.581 -5.753,-5.753 0,-28.544 23.222,-51.765 51.765,-51.765 9.127,0 18.047,2.405 25.897,6.962 5.61,7.52 12.188,14.278 19.545,20.09 4.124,7.555 6.322,16.06 6.322,24.713 v 41.077 c 0,23.547 14.768,44.42 36.5,52.501 0.867,4.542 2.157,8.934 3.821,13.142 -29.613,-7.156 -51.825,-34.052 -51.825,-65.643 z m 46.842,34.154 c -11.71,-7.106 -19.25,-19.949 -19.25,-34.155 v -41.076 c 0,-3.889 -0.34,-7.756 -0.999,-11.56 11.268,5.209 23.589,8.516 36.551,9.494 v 35.544 c -9.387,11.547 -15.338,25.985 -16.302,41.753 z m 130.801,61.972 h -57.435 c -31.67,0 -57.436,-25.766 -57.436,-57.438 0,-31.669 25.765,-57.436 57.436,-57.436 31.669,0 57.435,25.765 57.435,57.436 z m 37.796,0 h -21.711 v -9.649 h 21.711 c 2.66,0 4.825,2.164 4.825,4.823 0,2.662 -2.165,4.826 -4.825,4.826 z m 8.404,-23.956 c -2.575,-1.137 -5.415,-1.778 -8.405,-1.778 h -21.711 v -31.704 c 0,-40.539 -32.981,-73.52 -73.519,-73.52 -15.161,0 -29.264,4.615 -40.981,12.512 v -20.518 h 33.382 c 4.443,0 8.042,-3.6 8.042,-8.042 0,-4.442 -3.6,-8.042 -8.042,-8.042 h -41.366 c -49.993,0 -90.666,-40.672 -90.666,-90.664 0,-47.279 36.386,-86.2 82.624,-90.286 v 20.294 c -35.08,4.005 -62.424,33.858 -62.424,69.991 0,38.855 31.61,70.466 70.466,70.466 h 41.366 c 4.443,0 8.042,-3.6 8.042,-8.042 0,-4.443 -3.6,-8.042 -8.042,-8.042 H 204.32 c 2.979,-3.978 6.3,-7.704 9.955,-11.138 3.213,-3.017 3.398,-8.058 0.416,-11.303 -4.741,-5.159 -8.804,-10.771 -12.212,-16.757 1.197,0.094 2.403,0.157 3.624,0.157 4.441,0 8.042,-3.6 8.042,-8.042 0,-4.442 -3.601,-8.042 -8.042,-8.042 -16.265,0 -29.497,-13.233 -29.497,-29.499 0,-9.734 4.653,-18.609 12.542,-24.138 h 8.214 c -9.629,3.792 -16.466,13.179 -16.466,24.138 0,14.303 11.638,25.94 25.94,25.94 4.443,0 8.042,-3.6 8.042,-8.042 0,-4.443 -3.6,-8.042 -8.042,-8.042 -5.434,0 -9.856,-4.421 -9.856,-9.856 0,-5.432 4.421,-9.852 9.856,-9.852 4.443,0 8.042,-3.6 8.042,-8.042 0,-2.557 -1.197,-4.83 -3.056,-6.303 13.657,-0.87 24.505,-12.251 24.505,-26.123 0,-8.902 -4.47,-16.776 -11.28,-21.509 16.189,-12.896 36.465,-20.108 57.353,-20.108 h 55.697 c 28.131,0 54.061,12.716 71.234,33.773 -1.189,-0.365 -2.386,-0.711 -3.595,-1.024 -1.478,-0.384 -3.036,-0.339 -4.488,0.132 -10.26,3.312 -19.266,9.305 -26.197,17.301 -9.749,-11.233 -23.52,-18.44 -38.625,-19.858 -0.455,-0.044 -0.913,-0.048 -1.363,-0.013 -21.296,1.626 -41.064,11.152 -55.66,26.827 -14.678,15.762 -22.761,36.31 -22.761,57.863 0,45.491 35.565,82.721 80.99,84.817 1.256,0.098 2.355,0.143 3.45,0.143 h 12.309 c 3.056,8.884 4.626,18.152 4.626,27.656 v 54.936 c -0.003,23.279 -9.437,45.331 -26.065,61.383 z m 81.342,14.307 h 21.711 c 2.659,0 4.824,2.164 4.824,4.823 0,2.66 -2.165,4.825 -4.824,4.825 H 413.294 Z M 374.099,354.605 V 336.45 c 14.339,10.697 23.111,27.677 23.111,46.058 v 57.438 h -53.336 c 0.369,-1.552 0.584,-3.162 0.584,-4.825 0,-2.641 -0.513,-5.159 -1.41,-7.487 19.81,-19.082 31.051,-45.322 31.051,-73.029 z m 27.664,-98.676 h -60.684 c -0.699,0 -1.436,-0.032 -2.316,-0.103 -0.093,-0.008 -0.185,-0.013 -0.279,-0.017 -36.875,-1.643 -65.76,-31.843 -65.76,-68.755 0,-35.544 27.557,-65.54 62.868,-68.594 13.663,1.5 25.747,9.551 32.421,21.639 1.415,2.564 4.112,4.155 7.041,4.155 2.927,0 5.624,-1.591 7.04,-4.154 4.86,-8.8 12.585,-15.51 21.911,-19.088 7.062,2.092 13.685,5.282 19.742,9.51 4.173,10.66 6.287,21.908 6.287,33.469 0,10.284 -1.706,20.416 -5.07,30.113 -0.94,2.711 -0.365,5.719 1.51,7.89 5.111,5.919 7.924,13.483 7.924,21.297 -0.001,17.998 -14.641,32.638 -32.635,32.638 z m 34.855,1.357 c 4.72,-4.84 8.451,-10.651 10.843,-17.108 27.349,14.361 45.394,41.404 48.09,72.182 H 475.25 c -2.709,-23.934 -17.369,-44.559 -38.632,-55.074 z m 59.297,93.908 c 0,5.57 -4.531,10.101 -10.099,10.101 -5.568,0 -10.1,-4.532 -10.1,-10.101 v -22.749 h 20.199 z"
     id="path60" /><path
     d="m 370.083,184.628 c -3.142,-3.14 -8.233,-3.14 -11.374,0 -3.141,3.142 -3.141,8.233 0,11.374 l 4.771,4.771 c 1.571,1.57 3.63,2.355 5.688,2.355 2.058,0 4.117,-0.785 5.687,-2.355 3.141,-3.142 3.141,-8.233 0,-11.374 z"
     id="path62" /><path
     d="m 392.878,184.628 -4.772,4.771 c -3.142,3.141 -3.142,8.232 -10e-4,11.374 1.571,1.571 3.629,2.356 5.687,2.356 2.058,0 4.117,-0.785 5.686,-2.355 l 4.772,-4.771 c 3.142,-3.141 3.142,-8.232 10e-4,-11.373 -3.141,-3.142 -8.233,-3.143 -11.373,-0.002 z"
     id="path64" /><path
     d="m 429.472,163.388 c 0,-4.685 -3.791,-8.478 -8.475,-8.478 -4.682,0 -8.475,3.793 -8.475,8.478 0,4.683 3.794,8.478 8.475,8.478 4.684,-0.001 8.475,-3.795 8.475,-8.478 z"
     id="path66" /><path
     d="m 321.541,154.91 c -4.684,0 -8.475,3.793 -8.475,8.478 0,4.683 3.792,8.478 8.475,8.478 4.682,0 8.478,-3.795 8.478,-8.478 0,-4.685 -3.795,-8.478 -8.478,-8.478 z"
     id="path68" /></g>
<g
   id="g76">
</g>
<g
   id="g78">
</g>
<g
   id="g80">
</g>
<g
   id="g82">
</g>
<g
   id="g84">
</g>
<g
   id="g86">
</g>
<g
   id="g88">
</g>
<g
   id="g90">
</g>
<g
   id="g92">
</g>
<g
   id="g94">
</g>
<g
   id="g96">
</g>
<g
   id="g98">
</g>
<g
   id="g100">
</g>
<g
   id="g102">
</g>
<g
   id="g104">
</g>
<g
   id="g366"
   transform="matrix(0.63936809,0,0,0.64889549,89.041023,-60.123038)"><g
     id="g266">
	<g
   id="g264">
		<path
   d="m 511.026,246.939 -1.896,-6.407 c -10.992,-37.155 -44.242,-64.122 -79.06,-64.122 -20.873,0 -53.49,-9.397 -85.034,-18.484 -33.914,-9.769 -65.947,-18.998 -89.036,-18.998 -22.783,0 -53.689,9.254 -86.409,19.053 -31.918,9.558 -64.923,19.442 -87.661,19.442 -34.992,0 -68.241,26.54 -79.06,63.108 l -1.896,6.41 c -2.104,7.114 -0.765,14.601 3.676,20.545 3.714,4.972 9.081,8.17 15.079,9.082 l 0.994,0.689 c 1.577,1.093 3.184,2.118 4.814,3.087 l 17.361,84.581 c 0.974,4.742 5.148,8.148 9.991,8.148 h 406.223 c 4.842,0 9.017,-3.405 9.991,-8.148 l 17.357,-84.56 c 2.03,-1.184 4.024,-2.451 5.969,-3.824 5.935,-0.943 11.24,-4.128 14.922,-9.058 4.44,-5.94 5.779,-13.428 3.675,-20.544 z M 450.793,352.677 H 61.208 L 48.257,289.584 c 21.254,5.088 44.07,1.522 63.046,-10.619 l 1.124,0.741 c 27.962,18.443 63.641,18.091 91.196,-0.81 l 5.249,3.322 c 26.817,16.965 61.367,16.805 88.029,-0.411 l 4.798,-3.098 7.093,4.398 c 13.104,8.124 28.083,12.182 43.058,12.182 15.227,0 30.45,-4.195 43.697,-12.575 l 6.148,-3.89 c 18.851,11.93 41.224,15.399 62.093,10.557 z m 40.217,-97.399 c -0.323,0.434 -1.056,1.162 -2.316,1.162 -2.232,0 -4.403,0.733 -6.18,2.086 -21.142,16.103 -50.057,16.795 -71.948,1.715 l -2.906,-2.001 c -3.365,-2.317 -7.786,-2.404 -11.238,-0.22 l -11.783,7.455 c -19.716,12.473 -45.272,12.589 -65.1,0.295 l -12.579,-7.798 c -1.647,-1.021 -3.51,-1.531 -5.375,-1.531 -1.926,0 -3.85,0.545 -5.534,1.632 l -10.219,6.601 c -20.004,12.918 -45.934,13.039 -66.057,0.308 l -11.002,-6.96 c -3.487,-2.205 -7.957,-2.092 -11.327,0.281 l -4.707,3.317 c -20.765,14.63 -47.883,15.045 -69.084,1.061 l -6.905,-4.554 c -3.568,-2.354 -8.229,-2.231 -11.67,0.306 l -1.373,1.013 c -21.116,15.587 -49.798,16.009 -71.364,1.052 l -3.227,-2.238 c -1.707,-1.184 -3.735,-1.818 -5.812,-1.818 -1.261,0 -1.993,-0.727 -2.316,-1.162 -0.323,-0.433 -0.815,-1.341 -0.457,-2.55 l 1.896,-6.409 c 8.314,-28.102 33.338,-48.499 59.501,-48.499 25.728,0 60.187,-10.319 93.512,-20.299 29.872,-8.945 60.762,-18.197 80.557,-18.197 20.209,0 52.328,9.252 83.389,18.202 32.904,9.479 66.929,19.281 90.681,19.281 25.569,0 51.149,21.285 59.501,49.512 l 1.896,6.406 c 0.361,1.21 -0.131,2.117 -0.454,2.551 z"
   id="path262" />
	</g>
</g><g
     id="g272">
	<g
   id="g270">
		<path
   d="m 237.941,181.754 c -1.56,-5.413 -7.214,-8.529 -12.626,-6.972 l -52.677,15.195 c -5.413,1.561 -8.533,7.214 -6.973,12.626 1.289,4.468 5.367,7.375 9.795,7.375 0.936,0 1.888,-0.131 2.831,-0.403 l 52.677,-15.195 c 5.413,-1.561 8.534,-7.213 6.973,-12.626 z"
   id="path268" />
	</g>
</g><g
     id="g278">
	<g
   id="g276">
		<path
   d="m 339.364,189.979 -52.677,-15.195 c -5.414,-1.559 -11.066,1.559 -12.626,6.973 -1.56,5.412 1.56,11.065 6.973,12.626 l 52.677,15.195 c 0.944,0.272 1.895,0.403 2.831,0.403 4.428,0 8.506,-2.908 9.795,-7.375 1.56,-5.414 -1.562,-11.066 -6.973,-12.627 z"
   id="path274" />
	</g>
</g><g
     id="g284">
	<g
   id="g282">
		<path
   d="m 256,192.618 c -5.632,0 -10.199,4.567 -10.199,10.199 v 13.17 c 0,5.632 4.567,10.199 10.199,10.199 5.632,0 10.199,-4.567 10.199,-10.199 v -13.17 c 0,-5.633 -4.566,-10.199 -10.199,-10.199 z"
   id="path280" />
	</g>
</g><g
     id="g290">
	<g
   id="g288">
		<path
   d="m 385.668,321.272 h -52.677 c -5.632,0 -10.199,4.567 -10.199,10.199 0,5.632 4.567,10.199 10.199,10.199 h 52.677 c 5.632,0 10.199,-4.567 10.199,-10.199 0,-5.632 -4.567,-10.199 -10.199,-10.199 z"
   id="path286" />
	</g>
</g><g
     id="g296">
	<g
   id="g294">
		<path
   d="m 430.241,321.272 h -12.157 c -5.632,0 -10.199,4.567 -10.199,10.199 0,5.632 4.567,10.199 10.199,10.199 h 12.157 c 5.632,0 10.199,-4.567 10.199,-10.199 0,-5.632 -4.567,-10.199 -10.199,-10.199 z"
   id="path292" />
	</g>
</g><g
     id="g298">
</g><g
     id="g300">
</g><g
     id="g302">
</g><g
     id="g304">
</g><g
     id="g306">
</g><g
     id="g308">
</g><g
     id="g310">
</g><g
     id="g312">
</g><g
     id="g314">
</g><g
     id="g316">
</g><g
     id="g318">
</g><g
     id="g320">
</g><g
     id="g322">
</g><g
     id="g324">
</g><g
     id="g326">
</g></g><text
   xml:space="preserve"
   id="text1669"
   style="font-style:normal;font-variant:normal;font-weight:normal;font-stretch:normal;font-size:192px;line-height:1.25;font-family:Consolas;-inkscape-font-specification:Consolas;white-space:pre;shape-inside:url(#rect1671);fill:#000000;fill-opacity:1;stroke:none"
   transform="matrix(0.70988683,0,0,0.73611308,-311.13815,241.78601)"><tspan
     x="535.42969"
     y="314.7131"
     id="tspan30746"><tspan
       style="font-family:'OCR A Extended';-inkscape-font-specification:'OCR A Extended'"
       id="tspan30744">Apie</tspan></tspan></text><text
   xml:space="preserve"
   id="text27049"
   style="fill:black;fill-opacity:1;line-height:1.25;stroke:none;font-family:sans-serif;font-style:normal;font-weight:normal;font-size:40px;white-space:pre;shape-inside:url(#rect27051)" /><text
   xml:space="preserve"
   id="text28735"
   style="fill:black;fill-opacity:1;line-height:1.25;stroke:none;font-family:sans-serif;font-style:normal;font-weight:normal;font-size:40px;white-space:pre;shape-inside:url(#rect28737)" /><rect
   style="fill:#ffffff;fill-opacity:1;stroke-width:1;stroke-dasharray:0, 11"
   id="rect29041"
   width="113.45083"
   height="31.713921"
   x="181.45595"
   y="136.99106" /><rect
   style="fill:#ffffff;fill-opacity:1;stroke-width:1.59687;stroke-dasharray:0, 17.5656"
   id="rect30518"
   width="23.581062"
   height="13.871214"
   x="258.92932"
   y="388.16281" /></svg>
